<svg xmlns="http://www.w3.org/2000/svg" viewBox="0 0 48 48" fill="none">
  <rect width="48" height="48" rx="12" fill="#E60023"/>
  <path d="M24 10C16.268 10 10 16.268 10 24C10 30.078 13.866 35.208 19.314 37.228C19.166 36.098 19.032 34.346 19.372 33.098C19.68 31.962 21.4 24.614 21.4 24.614C21.4 24.614 20.874 23.756 20.874 22.49C20.874 20.51 22.026 19.034 23.462 19.034C24.68 19.034 25.27 19.952 25.27 21.052C25.27 22.284 24.488 24.126 24.082 25.83C23.742 27.266 24.816 28.436 26.232 28.436C28.8 28.436 30.782 25.742 30.782 21.892C30.782 18.478 28.33 16.106 24.054 16.106C19.148 16.106 16.268 19.756 16.268 23.536C16.268 24.768 16.732 26.09 17.314 26.81C17.422 26.942 17.438 27.058 17.404 27.19C17.274 27.73 16.982 28.914 16.93 29.138C16.862 29.43 16.698 29.496 16.394 29.352C14.618 28.526 13.486 25.98 13.486 23.476C13.486 18.93 16.84 14.72 24.404 14.72C30.52 14.72 35.296 19.082 35.296 24.482C35.296 30.55 31.526 35.438 26.262 35.438C24.812 35.438 23.444 34.682 22.976 33.792C22.976 33.792 22.226 36.7 22.044 37.4C21.698 38.738 20.768 40.404 20.126 41.418C21.346 41.8 22.646 42 24 42C31.732 42 38 35.732 38 28C38 16.268 31.732 10 24 10Z" fill="white"/>
  <text x="24" y="30" text-anchor="middle" fill="white" font-size="14" font-weight="bold">RG</text>
</svg>
